<svg xmlns="http://www.w3.org/2000/svg" viewBox="0 0 210.75 42.88"><defs><style>.cls-1{fill:#fff;}</style></defs><title>indysoft-logo_wht</title><g id="Layer_2" data-name="Layer 2"><g id="Layer_1-2" data-name="Layer 1"><path class="cls-1" d="M32.13,0,7.08.05A7.12,7.12,0,0,0,0,7.16L0,32.21a7.12,7.12,0,0,0,7.11,7.08l25.05,0a7.12,7.12,0,0,0,7.09-7.11l0-25.05A7.11,7.11,0,0,0,32.13,0ZM2.36,33.47l0-5.95L21.83,5.85v6.49ZM36.94,12.31,17.46,33.44l0-5.95L36.93,5.81Z"/><path class="cls-1" d="M48.74,32.53c.33-5,.59-10.2.79-15.48s.29-9.33.29-12.13l0-2.35,3.52,0,3.22,0q-.84,11.55-1,30l-3.1,0C51.88,32.48,50.66,32.49,48.74,32.53Z"/><path class="cls-1" d="M60.23,32.37q.48-5,.78-11.16t.35-11.1c1.29,0,2.32,0,3.09,0s1.87,0,2.89-.05l-.22,3.72a16,16,0,0,1,1.14-1.53,7.46,7.46,0,0,1,1.26-1.12,7,7,0,0,1,1.63-.88,11,11,0,0,1,1.95-.53,12.67,12.67,0,0,1,2.26-.2,12.84,12.84,0,0,1,3.58.49,6,6,0,0,1,2.76,1.56,5.3,5.3,0,0,1,1.39,2.33,10.74,10.74,0,0,1,.34,2.7c0,.39,0,1-.06,1.88L83,28.08c0,1.33-.08,2.75-.09,4.25-1.11,0-2,0-2.84,0-1.06,0-2.13,0-3.21.05.11-1.27.24-3.48.41-6.64s.24-5.25.24-6.27a6.37,6.37,0,0,0-.53-2.78,3.56,3.56,0,0,0-1.63-1.6,5.33,5.33,0,0,0-2.38-.54,5.37,5.37,0,0,0-4.23,2,7.05,7.05,0,0,0-1.3,2.43,24,24,0,0,0-.7,5.06c-.14,2.09-.24,4.88-.32,8.38-1.08,0-2.05,0-2.92,0S61.49,32.34,60.23,32.37Z"/><path class="cls-1" d="M109,32.28c-1.16,0-2.06,0-2.7,0s-1.67,0-2.9,0l.18-3.81A20.16,20.16,0,0,1,102,30.41a8.14,8.14,0,0,1-1.64,1.26,7.76,7.76,0,0,1-2.1.87,9.63,9.63,0,0,1-2.35.29,9.42,9.42,0,0,1-3.78-.76,8.34,8.34,0,0,1-3-2.15,8.74,8.74,0,0,1-1.84-3.3,13.62,13.62,0,0,1-.59-4,15.48,15.48,0,0,1,1-5.6,11.48,11.48,0,0,1,2.86-4.41,10.46,10.46,0,0,1,4.13-2.4,17.09,17.09,0,0,1,4.94-.71,28.41,28.41,0,0,1,4.32.37q.15-2.85.15-6V2.41c1.32,0,2.33,0,3,0,.91,0,1.93,0,3.06-.05q-.45,5.57-.84,15.14T109,32.28ZM103.72,14a11,11,0,0,0-3-.43,10.4,10.4,0,0,0-3.17.48,6.55,6.55,0,0,0-2.67,1.65,7.61,7.61,0,0,0-1.79,3,10.39,10.39,0,0,0-.62,3.5A8,8,0,0,0,93,25.31a4.76,4.76,0,0,0,1.8,2.2,4.85,4.85,0,0,0,2.75.81,4.8,4.8,0,0,0,3.81-1.75,7.45,7.45,0,0,0,1.31-2.29,14.89,14.89,0,0,0,.76-3.72Q103.6,18.85,103.72,14Z"/><path class="cls-1" d="M110.87,42.32c-.26-2.19-.46-3.76-.62-4.72a8.63,8.63,0,0,0,3.8,1,4.22,4.22,0,0,0,1.11-.14,4.41,4.41,0,0,0,1-.41,2.54,2.54,0,0,0,.64-.5,7.65,7.65,0,0,0,.89-1.2,15.35,15.35,0,0,0,1-1.73,14.56,14.56,0,0,0,.69-1.84L115,19.45,111.82,10l3.16,0c.75,0,1.72,0,2.92-.05.3,1.22.57,2.27.82,3.16l2,6.86c.62,2.12,1.07,3.71,1.33,4.77.17.7.37,1.63.6,2.78q.63-2,1.08-3.24.81-2.28,2.28-6.09L128,13c.36-.94.73-1.95,1.1-3,1.26,0,2.22,0,2.88,0l3,0-8,18.89-3.49,8.34a13.84,13.84,0,0,1-1.4,2.52A7.25,7.25,0,0,1,120.92,41a6.68,6.68,0,0,1-1.34.87,10.46,10.46,0,0,1-2,.71,11.57,11.57,0,0,1-2.42.26c-.46,0-1.1,0-1.93-.12A16,16,0,0,1,110.87,42.32Z"/><path class="cls-1" d="M135.63,31.59c-.11-2.21-.26-4-.45-5.42a17.69,17.69,0,0,0,7.48,1.93,7.06,7.06,0,0,0,2.5-.43,3.54,3.54,0,0,0,1.72-1.21,2.86,2.86,0,0,0,.55-1.74,3.16,3.16,0,0,0-.27-1.33,6,6,0,0,0-1.34-1.69c-.8-.8-2.23-2.11-4.28-3.95-1-.89-1.66-1.52-2-1.9a15.83,15.83,0,0,1-1.94-2.24,7.25,7.25,0,0,1-1-2,7.45,7.45,0,0,1-.29-2.1,7.21,7.21,0,0,1,1.09-3.86,7.31,7.31,0,0,1,3.29-2.83,13.09,13.09,0,0,1,5.53-1,34.76,34.76,0,0,1,6.75.75c.08,1.52.22,3.26.43,5.21a16.37,16.37,0,0,0-6-1.3,5.47,5.47,0,0,0-3.36,1,2.78,2.78,0,0,0-1.3,2.27,3.23,3.23,0,0,0,.09.73,3.28,3.28,0,0,0,.27.74,5.75,5.75,0,0,0,.66.94,11,11,0,0,0,1.37,1.36c.6.52,1.11.93,1.54,1.25l2.59,2.45c.66.57,1.25,1.12,1.77,1.66a18.84,18.84,0,0,1,1.33,1.55,8.37,8.37,0,0,1,.87,1.42,6.51,6.51,0,0,1,.47,1.39,6.63,6.63,0,0,1,.16,1.5,7.44,7.44,0,0,1-.81,3.47,7,7,0,0,1-2.34,2.69,9.53,9.53,0,0,1-3.36,1.46,17.71,17.71,0,0,1-3.86.41,25.33,25.33,0,0,1-3.12-.23C139.15,32.35,137.58,32,135.63,31.59Z"/><path class="cls-1" d="M168.81,9.38a14.35,14.35,0,0,1,4.63.75,10,10,0,0,1,3.76,2.22A9.29,9.29,0,0,1,179.52,16a12.76,12.76,0,0,1,.79,4.5,14.46,14.46,0,0,1-.81,4.81,11.52,11.52,0,0,1-2.36,4,9.5,9.5,0,0,1-3.87,2.55,14.36,14.36,0,0,1-4.94.85A14,14,0,0,1,163.7,32,9.65,9.65,0,0,1,157.59,26a12.88,12.88,0,0,1-.82-4.53,14.34,14.34,0,0,1,.73-4.6,10.69,10.69,0,0,1,2.29-3.9,10.4,10.4,0,0,1,4-2.66A14,14,0,0,1,168.81,9.38Zm0,4.51a5.84,5.84,0,0,0-3.25.94,5.54,5.54,0,0,0-2.13,2.77,11.33,11.33,0,0,0-.69,4,9.41,9.41,0,0,0,.58,3.39,5.17,5.17,0,0,0,5,3.31,5.59,5.59,0,0,0,3.23-.95,5.75,5.75,0,0,0,2.09-2.81,11.57,11.57,0,0,0,.69-4.08,9.6,9.6,0,0,0-.55-3.3A4.84,4.84,0,0,0,172,14.78,5.39,5.39,0,0,0,168.82,13.89Z"/><path class="cls-1" d="M183.94,31.88l.25-3.57.61-14.07h-2.64c0-.43.08-1.14.13-2.11s.08-1.68.09-2.13h2.9V9.14a24.45,24.45,0,0,1,.18-3.54,4.91,4.91,0,0,1,.71-2,4.5,4.5,0,0,1,1.47-1.36,6.16,6.16,0,0,1,2.07-.78A12.67,12.67,0,0,1,192,1.25a20.24,20.24,0,0,1,5.13.68c.05,1.62.13,3,.25,4.15a11.12,11.12,0,0,0-3.73-.72,4.17,4.17,0,0,0-1.21.16,2.67,2.67,0,0,0-.91.45,2.13,2.13,0,0,0-.58.73,3.36,3.36,0,0,0-.32,1.07,10.18,10.18,0,0,0-.08,1.42V10H196c-.08,1-.17,2.41-.25,4.24h-5.11q-.39,8.61-.59,17.64c-1.29,0-2.32,0-3.08,0S185.18,31.85,183.94,31.88Z"/><path class="cls-1" d="M210.51,27.49c-.16.81-.43,2.3-.79,4.48a23.67,23.67,0,0,1-2.78.54,18.31,18.31,0,0,1-1.89.11,12,12,0,0,1-2.8-.3,4.38,4.38,0,0,1-2-1.09,3.84,3.84,0,0,1-1.09-1.82,8.1,8.1,0,0,1-.29-2.16c0-.19,0-.45,0-.77s.07-1.36.16-3.12l.47-9.14h-3c.07-.88.13-2.29.18-4.24h3.17c.08-.85.17-2.29.25-4.32l2.48-.51c.52-.11,1.53-.35,3-.74-.1,2-.15,3.84-.16,5.56h5.35c-.09,2-.14,3.4-.14,4.25h-5.37q-.42,8.94-.42,10.35a6.17,6.17,0,0,0,.29,2.11,1.92,1.92,0,0,0,.92,1.07,2.86,2.86,0,0,0,1.34.33,7.21,7.21,0,0,0,1.11-.09A20.34,20.34,0,0,0,210.51,27.49Z"/></g></g></svg>